<svg viewBox="0 0 25.2 25.2" xmlns="http://www.w3.org/2000/svg"><path d="m266.91 249.68a12.63 12.63 0 0 0 -4.59-4.59 12.66 12.66 0 0 0 -12.64 0 12.55 12.55 0 0 0 -4.59 4.59 12.68 12.68 0 0 0 0 12.65 12.57 12.57 0 0 0 4.58 4.58 12.68 12.68 0 0 0 12.65 0 12.6 12.6 0 0 0 4.59-4.58 12.68 12.68 0 0 0 0-12.65zm-10.91-4.44a10.33 10.33 0 0 1 7.1 2.69l-.2.29a8 8 0 0 1 -.62.66 9.85 9.85 0 0 1 -1.07.94 15 15 0 0 1 -1.58 1 15.57 15.57 0 0 1 -2.14 1 47.3 47.3 0 0 0 -4-6.27 10.69 10.69 0 0 1 2.51-.31zm-8.43 4.08a10.64 10.64 0 0 1 3.84-3 57.47 57.47 0 0 1 4 6.2 38.75 38.75 0 0 1 -9.94 1.32 10.65 10.65 0 0 1 2.1-4.52zm-1.57 10.56a10.57 10.57 0 0 1 -.72-3.88 3 3 0 0 1 0-.34 38.38 38.38 0 0 0 11.05-1.53c.35.68.64 1.29.86 1.82l-.19.05-.21.05-.61.22a11.83 11.83 0 0 0 -1.63.78c-.67.38-1.39.82-2.14 1.33a14.53 14.53 0 0 0 -2.34 2 13.63 13.63 0 0 0 -2 2.73 10.94 10.94 0 0 1 -2.07-3.23zm10 6.88a10.56 10.56 0 0 1 -6.86-2.46l.25.18a8.69 8.69 0 0 1 1.69-2.43 14 14 0 0 1 2.15-1.87 21.09 21.09 0 0 1 2.24-1.35c.81-.42 1.37-.69 1.66-.8l.71-.27a44.44 44.44 0 0 1 2.3 8.17 10.76 10.76 0 0 1 -4.14.83zm9.06-4.94a10.73 10.73 0 0 1 -3 3.11 46.62 46.62 0 0 0 -2.1-7.7 15.43 15.43 0 0 1 6.71.48 10.68 10.68 0 0 1 -1.61 4.11zm1.54-6-.41-.07-.6-.1-.79-.11-.93-.09c-.32 0-.67 0-1.05-.06s-.74 0-1.13 0-.78 0-1.2 0-.83.06-1.23.11a2 2 0 0 1 -.12-.27c-.05-.13-.08-.22-.1-.29-.21-.46-.45-1-.73-1.56a15.41 15.41 0 0 0 2.16-1 17.53 17.53 0 0 0 1.64-1.07 13.9 13.9 0 0 0 1.17-1c.36-.35.6-.6.71-.73l.31-.4a10.56 10.56 0 0 1 2.44 6.73z" fill="#fffefe" transform="translate(-243.4 -243.4)"/></svg>