<svg xmlns="http://www.w3.org/2000/svg" width="100" height="100" viewBox="0 0 100 100" fill="none" stroke="currentColor" stroke-width="0.5" stroke-linecap="round" stroke-linejoin="round" class="feather feather-facebook"><path d="M210.624,240.619c10.624-5.344,18.656-11.296,24.16-17.728c9.792-11.584,14.624-26.944,14.624-45.984
				c0-18.528-4.832-34.368-14.496-47.648c-16.128-21.632-43.424-32.704-82.016-33.28H0v312.096h142.56
				c16.064,0,30.944-1.376,44.704-4.192c13.76-2.848,25.664-8.064,35.744-15.68c8.96-6.624,16.448-14.848,22.4-24.544
				c9.408-14.656,14.112-31.264,14.112-49.76c0-17.92-4.128-33.184-12.32-45.728C238.912,255.627,226.752,246.443,210.624,240.619z
				 M63.072,150.187h68.864c15.136,0,27.616,1.632,37.408,4.864c11.328,4.704,16.992,14.272,16.992,28.864
				c0,13.088-4.32,22.24-12.864,27.392c-8.608,5.152-19.776,7.744-33.472,7.744H63.072V150.187z M171.968,348.427
				c-7.616,3.68-18.336,5.504-32.064,5.504H63.072v-83.232h77.888c13.568,0.096,24.128,1.888,31.68,5.248
				c13.44,6.08,20.128,17.216,20.128,33.504C192.768,328.651,185.856,341.579,171.968,348.427z"></path></svg>