<svg viewBox="0 0 115.51 34.24" xmlns="http://www.w3.org/2000/svg"><g transform="translate(-141.76 -44.76)"><path d="m152.23 61.35q0-.69-.84-.75h-2.12q-.24 0-.24-.15a3.07 3.07 0 0 1 .63-1.41 1.57 1.57 0 0 1 .74-.59 22 22 0 0 1 2.76-.12h2.39a1.26 1.26 0 0 1 .6.11.55.55 0 0 1 .12.35c0 .13 0 1-.11 2.51s-.1 2.93-.1 4.15a12.79 12.79 0 0 0 .12 2.3 3.38 3.38 0 0 1 .12.59c0 .32-.28.67-.84 1a8.36 8.36 0 0 1 -2.53 1 15 15 0 0 1 -3.72.43 6.64 6.64 0 0 1 -4.73-1.91 8.12 8.12 0 0 1 -2.14-3.3 16.85 16.85 0 0 1 -.58-5q0-12 8.7-12a10.16 10.16 0 0 1 2.64.32 4.47 4.47 0 0 1 2.05 1.24 3.35 3.35 0 0 1 .88 2.38 4.3 4.3 0 0 1 -.3 1.54 2.26 2.26 0 0 1 -2.39 1.6 2.07 2.07 0 0 1 -1.55-.53 2 2 0 0 1 -.52-1.46.44.44 0 0 1 .39-.46 1.2 1.2 0 0 0 .57-1.13 1.44 1.44 0 0 0 -.6-1.24 2.06 2.06 0 0 0 -1.26-.44 3.23 3.23 0 0 0 -2.42 1 6.24 6.24 0 0 0 -1.44 2.74 26.13 26.13 0 0 0 -.74 6.18c0 3.43.82 5.71 2.48 6.84a3.31 3.31 0 0 0 1.94.66q1.89 0 2-.69.09-.94.09-2.91z" fill="#696"/><path d="m167 62.14.12 1.06c0 .38-.36.58-1.08.58-1.46 0-2.18-.56-2.18-1.67a4 4 0 0 1 .2-1.09 4.27 4.27 0 0 0 .21-1.21 1.39 1.39 0 0 0 -.3-.89 1 1 0 0 0 -.86-.38 1.31 1.31 0 0 0 -1 .41 1.72 1.72 0 0 0 -.5.83l-.12.42a18.9 18.9 0 0 0 -.18 3.14q0 2.19.06 3.45c0 .83.08 1.41.12 1.72s.06.5.06.56a1.39 1.39 0 0 1 -.93 1.23 4.06 4.06 0 0 1 -1.85.47c-.62 0-.93-.13-.93-.4l.15-.93a45.36 45.36 0 0 0 .42-6.87 35.65 35.65 0 0 0 -.3-5.76q0-.36.63-.36a2.15 2.15 0 0 1 2.26 1.12c0 .08.06.12.11.12a1.25 1.25 0 0 0 .4-.27 3.59 3.59 0 0 1 2.34-.82 4.37 4.37 0 0 1 1.67.34 2.8 2.8 0 0 1 1.71 2.9z" fill="#696"/><path d="m177.9 66.59a4.15 4.15 0 0 1 -.47 2 3.6 3.6 0 0 1 -1 1.27 5 5 0 0 1 -1.37.66 6.4 6.4 0 0 1 -1.88.3 4.07 4.07 0 0 1 -3.71-1.91 9 9 0 0 1 -1.2-4.86 9.58 9.58 0 0 1 1.48-5.25 5 5 0 0 1 4.45-2.3 3.7 3.7 0 0 1 3.65 1.91 3 3 0 0 1 .39 1.38 8.45 8.45 0 0 1 -.06 1 5 5 0 0 1 -.42 1.14 4.94 4.94 0 0 1 -1 1.36 5.75 5.75 0 0 1 -1.89 1.15 10.21 10.21 0 0 1 -3 .73q-.24 0-.24.21a2.6 2.6 0 0 0 .2.8 4.45 4.45 0 0 0 .43.9 2.33 2.33 0 0 0 1.95.84 3.09 3.09 0 0 0 2.18-.84 3.62 3.62 0 0 0 .78-1.12c.08-.17.18-.25.31-.25s.24.11.32.34a1.63 1.63 0 0 1 .1.54zm-6.53-4v.75q0 .18.24.18a4 4 0 0 0 1.68-.5 3.23 3.23 0 0 0 1.08-.92 4.45 4.45 0 0 0 .77-1.94v-.36c0-1.09-.43-1.63-1.28-1.63a1.84 1.84 0 0 0 -1.56.84 5.87 5.87 0 0 0 -.93 3.56z" fill="#696"/><path d="m184.84 78.64a.32.32 0 0 1 -.36.36 4.61 4.61 0 0 1 -2.23-.7c-.83-.46-1.24-1-1.24-1.6a8.77 8.77 0 0 1 1.13-3.16 9.08 9.08 0 0 0 1.14-3 10.37 10.37 0 0 0 -.78-2.94q-1-2.76-1.57-4.48a24.14 24.14 0 0 0 -1.25-3 6 6 0 0 0 -1-1.56l-.3-.21c-.21-.12-.32-.25-.32-.4s.43-.57 1.3-.86a7.33 7.33 0 0 1 2.28-.44c.3 0 .55.24.75.73a37.28 37.28 0 0 1 1.17 3.93c1 3.43 1.65 5.15 1.91 5.15s.55-.71 1.1-2.12a10.21 10.21 0 0 0 .82-3.42c0-1.51-.44-2.4-1.32-2.66-.2 0-.3-.14-.3-.31 0-.36.47-.71 1.41-1a7.75 7.75 0 0 1 2.54-.5c.66 0 1 .43 1 1.3a7.83 7.83 0 0 1 -.42 2.33 18.33 18.33 0 0 1 -.78 2.11c-.24.51-.83 1.7-1.78 3.57s-1.73 3.5-2.35 4.92a14 14 0 0 0 -1 5.17 6.8 6.8 0 0 0 .24 2.09 5.24 5.24 0 0 1 .21.7z" fill="#696"/><g fill="#c30"><path d="m192.29 52.23c-.55-.19-.83-.7-.83-1.52 0-.64 1.29-1.26 3.87-1.87a30.28 30.28 0 0 1 6.74-.91 8.61 8.61 0 0 1 5.05 1.33 4.14 4.14 0 0 1 1.88 3.54q0 3.26-3.56 5.85a24.43 24.43 0 0 1 -9.59 3.8 4.92 4.92 0 0 0 -1.79.54 8.63 8.63 0 0 0 -.3 2.63c-.08 1.61-.11 2.73-.11 3.36a1.91 1.91 0 0 1 -.42 1.2 1.22 1.22 0 0 1 -1 .53c-.86 0-1.29-.59-1.29-1.76 0-.64.18-2.42.53-5.35l1-8.76a10.09 10.09 0 0 0 0-1.28 2.41 2.41 0 0 0 -.18-1.33zm3-.84a13.65 13.65 0 0 0 -.2 1.58c-.14 1.37-.31 2.89-.51 4.54-.11.87-.21 1.81-.31 2.82a24.37 24.37 0 0 0 8.53-2.72c2.48-1.37 3.73-2.87 3.73-4.5q0-3-4.62-3a19.76 19.76 0 0 0 -6.58 1.28z"/><path d="m213.58 66.5a12.17 12.17 0 0 0 .3 2.52 2.15 2.15 0 0 1 .06.45c0 .17-.16.4-.48.68a1.53 1.53 0 0 1 -1 .42c-.95 0-1.42-.87-1.42-2.63a52.2 52.2 0 0 1 1.11-8.6 21.83 21.83 0 0 0 .38-2.52 3.39 3.39 0 0 1 .34-1.59 1 1 0 0 1 1-.66 1.78 1.78 0 0 1 1.17.36 1 1 0 0 1 .43.81 4.75 4.75 0 0 1 -.2 1.16q-1.09 3.91-1.36 5.59a25.83 25.83 0 0 0 -.33 4.01zm1.91-16.5c-.2 0-.36-.22-.47-.67a4.16 4.16 0 0 0 -.16-.45 4.61 4.61 0 0 1 -.39-1.67 1.69 1.69 0 0 1 .69-1.21 2.26 2.26 0 0 1 1.54-.61 1.81 1.81 0 0 1 1 .33c.35.22.53.44.53.64a6.61 6.61 0 0 1 -.36 1.66 2.46 2.46 0 0 1 -1.14 1.57 3 3 0 0 1 -1.24.41z"/><path d="m224.46 64.28a14.67 14.67 0 0 0 -4.4 5.84 5.58 5.58 0 0 1 -.83 1.46c-1.16-.07-1.74-.62-1.74-1.64 0-1.51 1.66-3.79 5-6.86l.7-.66q-2.89-4.43-2.9-6.79c0-1.4.58-2.09 1.75-2.09a.76.76 0 0 1 .72.42 6.47 6.47 0 0 1 .36 1.95 10.38 10.38 0 0 0 2 5 23 23 0 0 0 5.47-6.29 4.82 4.82 0 0 1 .74-1.12 1 1 0 0 1 .7-.24 1.49 1.49 0 0 1 1 .41 1.39 1.39 0 0 1 .46 1.05q0 1.48-7.1 8.1a18.14 18.14 0 0 0 5.2 4.75c.22.12.44.26.64.39a1.1 1.1 0 0 1 .06.42 1.65 1.65 0 0 1 -.46 1.14 1.46 1.46 0 0 1 -1.1.5q-2.01-.02-6.27-5.74z"/><path d="m248.05 64.77q0 1.5-2.64 3.63a8.56 8.56 0 0 1 -5.41 2.13 4.67 4.67 0 0 1 -3.63-1.4 5.62 5.62 0 0 1 -1.28-3.92 13.3 13.3 0 0 1 2.82-8q2.82-3.81 6.17-3.81a2.39 2.39 0 0 1 1.79.72 2.45 2.45 0 0 1 .69 1.75 6 6 0 0 1 -2.2 4.36 28.52 28.52 0 0 1 -5.91 4.09 1.19 1.19 0 0 0 -.76 1 2.52 2.52 0 0 0 2.75 2.68q3.13 0 6.41-3.52c.32-.32.57-.49.73-.49s.47.27.47.78zm-10.15-2.31q6.19-3.72 6.19-6c0-.59-.26-.89-.79-.89-.89 0-1.9.66-3 2a11.67 11.67 0 0 0 -2.4 4.89z"/><path d="m256.22 44.76c.7 0 1 .45 1 1.36a31.1 31.1 0 0 1 -1.22 5.76 43 43 0 0 0 -1.24 6.33 44.19 44.19 0 0 0 -.44 5.42 39.35 39.35 0 0 0 .3 4.85 5.58 5.58 0 0 1 .06.66 1.79 1.79 0 0 1 -.49 1.27 1.45 1.45 0 0 1 -1.06.53c-.51 0-.87-.32-1.07-1a11.78 11.78 0 0 1 -.3-3.15 79.07 79.07 0 0 1 1.18-12.27q1.17-7.3 1.87-8.55c.46-.8.93-1.21 1.41-1.21z"/></g></g></svg>